:SAMPLES-PER-SECOND 30
:FRAME-RANGE 1-744
:FULLY-SPECIFIED
:DEGREES
233
root  -14.6506 39.5815 -12.6237 -11.4853 4.07039 -5.18251
RightUpLeg  -6.42356 -1.80926 -3.10598
RightLeg  57.5206 1.6843 2.4096
RightFoot  -0.0816154 -0.700639 7.09243
RightToes  5.82063e-011 0 -3.6325e-017
Spine  -2.80192 -7.64704 18.8621
Spine1  5.42202 -4.95347 -17.9667
HEad  1.48994 23.2346 -7.2323
LeftShoulder1  3.01668 -3.85398 -34.9657
LeftArm  -2.85089 21.8477 -21.7393
LeftForeArm  -2.91464 -71.379 -38.5324
LeftHand  0.12959 -4.09776 -1.31471
RightShoulder  1.25089 -1.62938 58.6476
RightArm  5.78758 -3.07524 -7.77629
RightForeArm  7.89191 72.8081 41.4655
RightHand  3.94989 18.717 18.2168
LeftUpLeg  8.63651 -10.0766 -12.4762
LeftLeg  10.4288 -0.779319 7.523
LeftFoot  -7.06928 -0.444367 12.9989
LeftToes  1.25507e-010 -3.78807e-010 5.71421e-011
234
root  -14.6677 39.683 -11.2723 -11.3763 4.72284 -5.1812
RightUpLeg  -9.8237 0.557294 -2.20194
RightLeg  51.5327 -0.130592 -0.545179
RightFoot  -2.21068 -0.531881 6.46458
RightToes  5.82063e-011 0 -3.6325e-017
Spine  -3.99052 -6.47596 17.4205
Spine1  6.5297 -4.07172 -15.9515
HEad  1.97904 23.7036 -7.31435
LeftShoulder1  3.11259 -4.09677 -34.9208
LeftArm  -2.7979 20.2649 -23.2908
LeftForeArm  -4.91225 -70.5552 -36.5163
LeftHand  0.00322128 -2.7889 0.169639
RightShoulder  1.35498 -1.4628 58.2985
RightArm  4.68099 -2.28352 -7.61759
RightForeArm  5.44125 72.1387 39.5932
RightHand  3.79867 18.4469 17.7172
LeftUpLeg  11.5575 -5.02813 -11.0189
LeftLeg  7.84222 -5.96405 6.73276
LeftFoot  -8.0085 -0.365398 14.1457
LeftToes  1.25507e-010 -3.78807e-010 5.71421e-011
235
root  -14.6957 39.7107 -9.90818 -11.5481 5.39331 -5.26846
RightUpLeg  -11.4333 3.41833 -1.3367
RightLeg  42.6398 -4.05003 -4.2773
RightFoot  -3.94312 -0.460664 6.70117
RightToes  5.82063e-011 0 -3.6325e-017
Spine  -4.75146 -5.35462 16.3297
Spine1  7.61221 -3.15364 -14.1061
HEad  2.1884 24.0844 -7.14966
LeftShoulder1  3.18893 -4.28849 -34.8949
LeftArm  -3.02968 18.1124 -25.0987
LeftForeArm  -7.2942 -69.1972 -33.5659
LeftHand  -0.1471 -1.77531 2.55047
RightShoulder  1.52709 -1.1976 58.07
RightArm  3.41639 -1.29759 -7.29687
RightForeArm  2.77152 71.2544 37.3354
RightHand  3.6948 18.3113 17.3291
LeftUpLeg  14.9625 -2.25312 -9.83123
LeftLeg  5.42655 -8.85823 6.41028
LeftFoot  -8.84469 -0.281381 15.269
LeftToes  1.25507e-010 -3.78807e-010 5.71421e-011
236
root  -14.7062 39.6859 -8.53674 -11.8838 6.02882 -5.3354
RightUpLeg  -11.0742 7.76522 -0.754895
RightLeg  30.6219 -9.26538 -6.10871
RightFoot  -4.29853 -0.419813 6.33873
RightToes  5.82063e-011 0 -3.6325e-017
Spine  -4.96637 -4.28781 15.6081
Spine1  8.25814 -2.20511 -12.4883
HEad  2.5617 24.5532 -6.81723
LeftShoulder1  3.2223 -4.34633 -35.0168
LeftArm  -3.31889 15.6949 -26.6333
LeftForeArm  -9.35781 -67.4762 -30.3956
LeftHand  -0.214808 -1.97924 3.56685
RightShoulder  1.89662 -0.640206 57.9499
RightArm  2.28965 -0.336939 -7.14878
RightForeArm  0.193879 70.2449 35.0435
RightHand  3.65661 18.2019 17.23
LeftUpLeg  18.5985 -0.706327 -8.73803
LeftLeg  3.15441 -10.8224 6.11636
LeftFoot  -9.88288 -0.136979 15.3564
LeftToes  1.25507e-010 -3.78807e-010 5.71421e-011
237
root  -14.7327 39.4903 -7.12031 -12.3391 6.64098 -5.04796
RightUpLeg  -8.9118 13.7666 -0.67558
RightLeg  15.6392 -13.0136 -5.1978
RightFoot  -3.85247 -0.482869 6.96753
RightToes  5.82063e-011 0 -3.6325e-017
Spine  -4.7073 -3.27561 14.5932
Spine1  8.56326 -1.26693 -11.3852
HEad  2.78573 25.2258 -6.41579
LeftShoulder1  3.22838 -4.34557 -35.0967
LeftArm  -3.85957 14.6113 -27.4966
LeftForeArm  -9.33167 -67.031 -29.6146
LeftHand  -0.125822 -3.18459 1.94159
RightShoulder  2.50076 0.273564 57.803
RightArm  1.38489 0.736053 -6.88673
RightForeArm  -2.753 68.9986 32.5986
RightHand  3.57592 18.1169 16.908
LeftUpLeg  21.5872 0.766299 -7.86119
LeftLeg  2.81565 -12.5069 5.40617
LeftFoot  -11.7684 0.132254 16.2753
LeftToes  1.25507e-010 -3.78807e-010 5.71421e-011
238
root  -14.7392 39.1529 -5.61104 -13.1297 7.42867 -4.46246
RightUpLeg  -5.29843 4.28489 1.30659
RightLeg  -0.544167 2.64348 -6.31055
RightFoot  -3.81448 -0.57418 8.31855
RightToes  5.82063e-011 0 -3.6325e-017
Spine  -3.75263 -2.29483 13.1744
Spine1  8.28994 -0.366557 -10.3176
HEad  3.09225 25.6573 -6.01221
LeftShoulder1  3.24126 -4.32748 -35.351
LeftArm  -4.38763 13.0796 -28.109
LeftForeArm  -10.9718 -66.2573 -28.5168
LeftHand  -0.160057 -2.66718 2.52179
RightShoulder  3.10722 1.21967 57.3948
RightArm  0.73928 1.84462 -6.53894
RightForeArm  -4.93903 67.8189 30.5427
RightHand  3.5263 18.0512 16.7184
LeftUpLeg  24.8014 2.20115 -7.23746
LeftLeg  3.28775 -14.0783 4.71209
LeftFoot  -14.1379 0.504865 17.0445
LeftToes  1.25507e-010 -3.78807e-010 5.71421e-011
239
root  -14.7501 38.6859 -4.05404 -14.4732 8.38354 -3.57822
RightUpLeg  -3.65713 2.50298 0.693289
RightLeg  -8.60677 12.5204 -6.93088
RightFoot  -7.19504 -0.464256 11.4326
RightToes  5.82063e-011 0 -3.6325e-017
Spine  -1.90857 -1.34007 11.3614
Spine1  7.64762 0.58389 -9.38356
HEad  2.89952 25.8627 -5.94402
LeftShoulder1  3.25256 -4.33661 -35.445
LeftArm  -4.91287 11.0734 -28.6919
LeftForeArm  -11.6161 -65.061 -26.8008
LeftHand  -0.42747 -2.86797 6.23966
RightShoulder  3.86951 2.42179 56.9585
RightArm  0.111211 2.98108 -6.21829
RightForeArm  -6.95674 66.6004 28.6679
RightHand  3.52373 17.9714 16.7652
LeftUpLeg  28.4749 3.5794 -6.73076
LeftLeg  4.52009 -15.8913 3.89599
LeftFoot  -16.8469 0.955307 17.5991
LeftToes  1.25507e-010 -3.78807e-010 5.71421e-011
240
root  -14.7659 38.3328 -2.55223 -16.0289 9.664 -3.03123
RightUpLeg  -2.10916 1.39074 0.550215
RightLeg  -11.5794 19.6467 -8.22162
RightFoot  -9.48887 -0.317643 15.5468
RightToes  5.82063e-011 0 -3.6325e-017
Spine  0.624727 -0.380729 9.85823
Spine1  6.54622 1.4586 -7.8233
HEad  3.04734 26.0204 -5.91323
LeftShoulder1  3.27032 -4.37391 -35.4738
LeftArm  -5.68487 9.84721 -29.2256
LeftForeArm  -12.2975 -64.3608 -25.9137
LeftHand  -0.500777 -3.33001 6.91459
RightShoulder  4.7463 3.79926 56.6777
RightArm  -0.299393 4.15731 -5.94841
RightForeArm  -9.47102 65.1297 26.7122
RightHand  3.43759 17.8674 16.4253
LeftUpLeg  32.5164 4.52787 -5.82988
LeftLeg  5.16413 -18.139 3.45126
LeftFoot  -18.3233 1.18469 17.4569
LeftToes  1.25507e-010 -3.78807e-010 5.71421e-011
241
root  -14.7541 38.1081 -1.12361 -17.3454 10.8955 -2.98981
RightUpLeg  -1.1127 1.90507 1.23996
RightLeg  -8.30279 21.4722 -8.1415
RightFoot  -6.92648 -0.74213 17.8861
RightToes  5.82063e-011 0 -3.6325e-017
Spine  3.49705 0.386229 9.6174
Spine1  4.9839 2.31226 -6.65862
HEad  3.4878 26.9918 -5.54014
LeftShoulder1  3.24093 -4.29461 -35.5173
LeftArm  -6.68405 9.62269 -29.3488
LeftForeArm  -12.7153 -64.3959 -25.9988
LeftHand  -0.395316 -3.34421 5.50318
RightShoulder  5.91314 5.54233 56.9634
RightArm  -0.512086 5.6187 -5.58708
RightForeArm  -12.287 62.9033 24.1357
RightHand  3.39451 17.8666 16.2169
LeftUpLeg  35.5547 3.88036 -5.32793
LeftLeg  6.78752 -18.5077 2.69502
LeftFoot  -19.1745 1.19981 15.7253
LeftToes  1.25507e-010 -3.78807e-010 5.71421e-011
242
root  -14.7234 38.0289 0.288163 -18.1339 12.4172 -3.48286
RightUpLeg  -0.833838 3.52147 2.74329
RightLeg  -4.05759 20.3357 -8.16096
RightFoot  0.401879 -1.98606 19.1731
RightToes  5.82063e-011 0 -3.6325e-017
Spine  5.97355 0.692493 10.2043
Spine1  3.2788 2.93952 -5.82133
HEad  3.59728 28.8342 -5.47244
LeftShoulder1  3.16173 -4.07942 -35.6475
LeftArm  -7.83453 10.1545 -28.6705
LeftForeArm  -13.3805 -64.679 -26.4397
LeftHand  -0.176675 -3.29882 2.60472
RightShoulder  7.32387 7.54317 57.7028
RightArm  -0.281765 7.1031 -5.11445
RightForeArm  -14.3002 60.3304 21.6043
RightHand  3.57248 18.2091 16.8232
LeftUpLeg  36.6908 -1.05706 -7.29934
LeftLeg  10.6095 -13.8319 0.89141
LeftFoot  -19.126 0.988999 12.7818
LeftToes  1.25507e-010 -3.78807e-010 5.71421e-011
243
root  -14.6876 38.0531 1.75011 -18.0737 13.95 -4.40462
RightUpLeg  -2.21759 5.65827 4.65516
RightLeg  2.87128 18.5674 -7.16773
RightFoot  2.10864 -2.21326 18.7389
RightToes  5.82063e-011 0 -3.6325e-017
Spine  7.45988 1.3576 10.6377
Spine1  1.28471 3.63098 -4.34997
HEad  3.77933 31.2011 -5.97875
LeftShoulder1  3.12663 -3.87706 -36.2965
LeftArm  -8.74123 9.8203 -28.1328
LeftForeArm  -15.2135 -63.5824 -25.1822
LeftHand  -0.304997 -2.25904 4.83015
RightShoulder  8.58632 9.31876 58.2304
RightArm  0.234544 8.44126 -4.60842
RightForeArm  -15.8466 57.6018 19.3575
RightHand  3.58689 18.4537 16.7125
LeftUpLeg  35.0027 -6.70361 -8.27155
LeftLeg  17.8415 -8.7501 -2.81997
LeftFoot  -17.5767 0.604445 9.13248
LeftToes  1.25507e-010 -3.78807e-010 5.71421e-011
244
root  -14.6006 38.0845 3.27013 -18.3956 16.0061 -5.9213
RightUpLeg  -2.78343 8.75706 5.92886
RightLeg  9.04388 13.7409 -4.882
RightFoot  1.02574 -1.87288 17.2316
RightToes  5.82063e-011 0 -3.6325e-017
Spine  8.32549 1.65386 12.171
Spine1  0.191817 4.20986 -4.05227
HEad  3.5925 33.0765 -6.3393
LeftShoulder1  3.14714 -3.93821 -36.2265
LeftArm  -9.1979 9.87016 -27.4185
LeftForeArm  -16.1752 -62.9726 -24.5286
LeftHand  -0.281022 -2.85866 4.18304
RightShoulder  10.0001 11.24 58.913
RightArm  0.6523 10.0015 -3.93219
RightForeArm  -17.8525 54.3146 17.1418
RightHand  3.6051 18.5712 16.7132
LeftUpLeg  30.3032 -4.31419 -1.98883
LeftLeg  29.7734 -12.8527 -7.51374
LeftFoot  -12.6875 0.119434 3.67325
LeftToes  1.25507e-010 -3.78807e-010 5.71421e-011
245
root  -14.4483 38.1426 4.66879 -18.8708 18.6715 -7.22809
RightUpLeg  -2.40985 11.305 7.43838
RightLeg  13.3988 8.1479 -4.44243
RightFoot  -0.236203 -1.36386 13.9489
RightToes  5.82063e-011 0 -3.6325e-017
Spine  9.07722 1.56232 14.226
Spine1  -0.0868324 4.78658 -4.43285
HEad  2.42718 33.8774 -6.97038
LeftShoulder1  3.14847 -4.10334 -35.3488
LeftArm  -9.08296 8.47041 -26.5865
LeftForeArm  -17.7716 -62.0113 -23.5701
LeftHand  -0.35958 -2.6039 5.44043
RightShoulder  11.5703 13.5221 59.0126
RightArm  1.09506 11.8188 -3.11421
RightForeArm  -19.6986 50.9268 15.2422
RightHand  3.69828 18.7301 17.0342
LeftUpLeg  23.6367 -3.92718 2.34334
LeftLeg  42.9265 -13.2654 -12.5263
LeftFoot  -3.84676 0.238858 -3.2941
LeftToes  1.25507e-010 -3.78807e-010 5.71421e-011
246
root  -14.2708 38.115 5.8963 -19.878 22.1039 -8.90215
RightUpLeg  -1.56746 11.7121 9.06704
RightLeg  16.9038 3.72489 -4.80405
RightFoot  -2.72924 -0.919242 11.9199
RightToes  5.82063e-011 0 -3.6325e-017
Spine  10.6603 1.10796 16.876
Spine1  -0.80956 5.29737 -5.01764
HEad  1.08144 33.1803 -8.06903
LeftShoulder1  3.18482 -4.28804 -34.8455
LeftArm  -8.80631 5.48303 -26.1759
LeftForeArm  -19.3929 -60.304 -21.9488
LeftHand  -0.462058 -2.27162 7.20593
RightShoulder  12.9636 15.8274 58.2913
RightArm  1.53699 13.7595 -2.43256
RightForeArm  -21.6425 47.6707 13.707
RightHand  3.62841 18.8086 16.6517
LeftUpLeg  16.1303 -5.49948 5.09636
LeftLeg  54.3735 -11.0721 -15.6685
LeftFoot  6.21144 1.33191 -8.86013
LeftToes  1.25507e-010 -3.78807e-010 5.71421e-011
247
root  -14.0307 38.2567 7.15802 -20.8973 25.01 -9.41779
RightUpLeg  0.678489 9.95324 9.1958
RightLeg  18.303 2.31471 -4.25707
RightFoot  -5.40555 -0.584254 10.5289
RightToes  5.82063e-011 0 -3.6325e-017
Spine  12.4818 1.26032 18.3673
Spine1  -1.79076 6.07819 -5.98589
HEad  0.21084 31.6403 -9.0271
LeftShoulder1  3.20956 -4.36148 -34.7801
LeftArm  -8.70764 1.8465 -26.442
LeftForeArm  -21.0903 -57.9371 -19.9756
LeftHand  -0.445559 -3.246 6.23458
RightShoulder  14.2341 18.1911 57.1078
RightArm  1.90569 15.4378 -1.73018
RightForeArm  -24.0184 44.5129 12.4412
RightHand  3.24739 18.8417 14.8526
LeftUpLeg  10.1375 -5.77579 6.09595
LeftLeg  61.8378 -6.92178 -13.2229
LeftFoot  3.04466 0.592073 -4.83695
LeftToes  1.25507e-010 -3.78807e-010 5.71421e-011
